<svg version="1" xmlns="http://www.w3.org/2000/svg" width="933.333" height="933.333" viewBox="0 0 700.000000 700.000000"><path d="M324.5 12.7c-45.9 3.9-86.7 15.2-126.8 35.4C109.3 92.5 43.7 175.4 21 271.4c-6.7 28.3-8.5 45-8.5 78.6 0 31.3 1.1 43.4 6.6 69.8 9.6 46.3 30.7 93.2 59.3 131.6 50.2 67.6 124 114.2 206.6 130.5 27.4 5.4 64.7 7.5 92.1 5.2C481.2 678.3 574 623.6 631.7 537c24-36 41.7-78.8 49.8-120.1 5.1-26.4 5.9-35.5 5.9-66.9 0-30.8-.9-41.4-5.5-65-16.1-81.9-61.8-154.8-128.4-205C502.4 41.5 443.3 18.9 379 13c-10.5-.9-44.9-1.1-54.5-.3zm48.4 222.9c46.4 9.5 81.5 44.7 91.7 91.9 2.3 10.9 2.3 34.1 0 45-7.5 34.9-28.6 63.3-59.2 80.1-17.4 9.5-34.4 13.7-55.4 13.7s-38-4.2-55.4-13.7c-55.3-30.3-76.9-98.1-49.1-154.1 17.8-35.8 51.1-59.5 90.8-64.5 9.3-1.1 26.9-.4 36.6 1.6zm-4.7 292.3c3.7 1.2 10.1 4.4 14.3 7.2 29.7 19.9 34.4 61.3 9.9 87.7-11.4 12.4-25.6 18.6-42.4 18.6-16.7 0-30.8-6.1-42.5-18.6-10.4-10.9-15.5-24.1-15.5-39.6 0-22.4 12.1-42.1 32.3-52.4 11.9-6 30.2-7.2 43.9-2.9z"/></svg>